<svg width="297" height="93" viewBox="0 0 297 93" fill="none" xmlns="http://www.w3.org/2000/svg">
<g clip-path="url(#clip0_2169_92)">
<path d="M52.7167 51.2983C52.2865 50.5619 51.7095 49.9823 50.9755 49.5723C50.4669 49.2813 49.7355 49.0105 48.7788 48.7726C49.6747 48.4664 50.3909 48.0868 50.935 47.6161C51.4792 47.1504 51.8993 46.6139 52.1852 46.0141C52.4712 45.4042 52.6205 44.7639 52.6205 44.0882C52.6205 43.1619 52.3497 42.3065 51.8006 41.5296C51.2514 40.7527 50.4719 40.1554 49.4571 39.7429C49.0623 39.5809 48.589 39.4595 48.0829 39.3608V35.7544H44.6183V39.1178H42.3912V35.7544H38.9266V39.1178H33.6424V41.9472H34.4497C34.9863 41.9472 35.3482 41.9953 35.543 42.094C35.7328 42.1901 35.867 42.3243 35.9454 42.4888C36.0239 42.6533 36.0618 43.043 36.0618 43.6478V55.0539C36.0618 55.6512 36.0239 56.0384 35.9454 56.2054C35.867 56.3725 35.7328 56.5091 35.543 56.6002C35.3507 56.6939 34.9888 56.7394 34.4497 56.7394H33.6424V59.5688H38.9266V62.9322H42.3887V59.5688H44.3602C44.4487 59.5688 44.5297 59.5663 44.6208 59.5663V62.9322H48.0804V59.2778C48.6624 59.1664 49.1787 59.0247 49.6089 58.8475C50.806 58.3717 51.7297 57.6733 52.3826 56.7571C53.0381 55.8461 53.3646 54.8464 53.3646 53.7607C53.3595 52.8598 53.1469 52.0347 52.7167 51.2983ZM41.1183 42.4179H43.3605C44.6714 42.4179 45.5774 42.4989 46.0887 42.6609C46.5923 42.8203 46.9845 43.0936 47.2553 43.4732C47.5211 43.8554 47.6552 44.3134 47.6552 44.8499C47.6552 45.3688 47.5135 45.8243 47.23 46.2216C46.9491 46.6164 46.524 46.91 45.9647 47.1124C45.4003 47.3048 44.5373 47.4035 43.3605 47.4035H41.1183V42.4179ZM47.4527 55.0539C47.0579 55.5626 46.567 55.8967 45.995 56.0561C45.4256 56.2155 44.7094 56.3016 43.8363 56.3016H42.3432C41.8471 56.3016 41.5434 56.2738 41.4296 56.2206C41.3157 56.1675 41.2372 56.0713 41.1891 55.9397C41.1486 55.8309 41.1259 55.4639 41.1157 54.8338V50.4049H43.7629C44.922 50.4049 45.785 50.5138 46.3519 50.7289C46.9187 50.9415 47.3439 51.2603 47.6248 51.6804C47.9083 52.1031 48.0475 52.6143 48.0475 53.2217C48.0525 53.9353 47.8526 54.5503 47.4527 55.0539ZM82.4479 65.0529C82.1847 61.2846 80.4158 56.9646 77.1612 52.3486C76.4526 51.3464 75.6681 50.3417 74.843 49.342C75.6681 48.3399 76.4526 47.3377 77.1612 46.333C82.5264 38.7357 83.9082 31.8976 81.0535 27.0866C78.6847 23.0982 73.7548 20.99 66.7851 20.99C64.4239 20.99 61.8983 21.2355 59.2688 21.7012C56.7735 15.0402 53.3722 10.0597 49.4267 7.54163C49.5355 7.08104 49.6115 6.60779 49.6115 6.11682C49.614 2.73827 46.8757 0 43.4972 0C40.1186 0 37.3804 2.73827 37.3804 6.11682C37.3804 6.61032 37.4537 7.08357 37.5651 7.54163C33.6222 10.0597 30.2234 15.0402 27.7255 21.7012C25.0961 21.2355 22.5729 20.99 20.2117 20.99C13.2421 20.99 8.30963 23.0982 5.94338 27.0866C3.08869 31.9001 4.47048 38.7382 9.83567 46.333C10.5468 47.3377 11.3288 48.3399 12.1538 49.342C11.3288 50.3442 10.5468 51.3464 9.83567 52.3486C6.58113 56.9571 4.81719 61.2796 4.55146 65.0529C2.40033 65.9994 0.894531 68.143 0.894531 70.6459C0.894531 74.0219 3.6328 76.7627 7.01135 76.7627C8.29191 76.7627 9.47883 76.3679 10.4608 75.6947C13.0042 77.0107 16.2688 77.7016 20.2143 77.7016C22.5755 77.7016 25.0961 77.4536 27.7255 76.9905C31.4103 86.8174 37.0564 93 43.4997 93C49.943 93 55.5866 86.8123 59.2688 76.9905C61.8983 77.4561 64.4189 77.7016 66.7851 77.7016C70.728 77.7016 73.9952 77.0031 76.5412 75.6947C77.5256 76.3679 78.7075 76.7627 79.9881 76.7627C83.3666 76.7627 86.1049 74.0244 86.1049 70.6459C86.1023 68.143 84.5965 65.9994 82.4479 65.0529ZM66.7851 23.5183C70.9887 23.5183 76.4956 24.361 78.872 28.3748C81.1522 32.224 79.7729 38.2371 75.0911 44.8727C74.4963 45.7155 73.8485 46.5658 73.1626 47.406C70.2953 44.2299 66.8889 41.1272 63.0801 38.1966C62.4727 33.0693 61.468 28.3267 60.1141 24.1459C62.4626 23.7511 64.7099 23.5183 66.7851 23.5183ZM52.532 64.5847C49.5609 66.3461 46.5265 67.9051 43.4997 69.2692C40.4729 67.9076 37.436 66.3512 34.4649 64.5847C31.5951 62.8841 28.8872 61.0518 26.3387 59.1512C25.9894 55.9928 25.7845 52.718 25.7845 49.3496C25.7845 45.9787 25.9894 42.7064 26.3387 39.548C28.8872 37.6449 31.5951 35.8152 34.4675 34.112C37.4411 32.3506 40.4755 30.7916 43.4997 29.4301C46.5265 30.7916 49.5634 32.348 52.532 34.112C55.4044 35.8152 58.1123 37.6449 60.6582 39.548C61.01 42.7064 61.215 45.9812 61.215 49.3496C61.215 52.718 61.01 55.9928 60.6582 59.1512C58.1123 61.0493 55.4069 62.8841 52.532 64.5847ZM60.2153 62.6057C59.5826 66.7333 58.6791 70.5674 57.5378 74.0143C54.0453 73.2374 50.3707 72.0985 46.6252 70.5877C49.0269 69.4261 51.4336 68.1708 53.8252 66.7536C56.0446 65.4376 58.1705 64.0507 60.2153 62.6057ZM40.3742 70.5953C36.6287 72.1061 32.9541 73.245 29.4616 74.0194C28.3253 70.5775 27.4168 66.7384 26.7866 62.6107C28.8289 64.0507 30.9522 65.4452 33.1717 66.7637C35.5607 68.1733 37.97 69.4337 40.3742 70.5953ZM23.57 56.9925C20.5433 54.5275 17.8328 51.9614 15.502 49.3471C17.8328 46.7303 20.5433 44.1616 23.57 41.6992C23.3752 44.1818 23.2537 46.7252 23.2537 49.3471C23.2537 51.9689 23.3752 54.5124 23.57 56.9925ZM26.7866 36.0834C27.4168 31.9558 28.3253 28.1166 29.4616 24.6748C32.9541 25.4492 36.6287 26.5881 40.3742 28.0964C37.97 29.2555 35.5633 30.5158 33.1768 31.9305C30.9548 33.2465 28.8315 34.6409 26.7866 36.0834ZM46.6252 28.0964C50.3682 26.5881 54.0453 25.4492 57.5378 24.6748C58.6741 28.1141 59.5826 31.9558 60.2153 36.0834C58.1705 34.6409 56.0497 33.2465 53.8302 31.9305C51.4361 30.5158 49.0294 29.2555 46.6252 28.0964ZM63.4294 41.6966C66.4561 44.1591 69.1716 46.7278 71.4974 49.3446C69.1691 51.9614 66.4561 54.5301 63.4294 56.99C63.6268 54.5098 63.7457 51.9664 63.7457 49.3446C63.7457 46.7227 63.6242 44.1768 63.4294 41.6966ZM38.6989 9.8598C39.8175 11.2897 41.5409 12.2286 43.4997 12.2286C45.4585 12.2286 47.1819 11.2922 48.3005 9.8598C51.5576 12.0742 54.4528 16.4524 56.6773 22.2529C52.4586 23.2044 48.0146 24.6875 43.4997 26.6564C38.9848 24.6875 34.5434 23.2044 30.3221 22.2529C32.5466 16.4524 35.4418 12.0742 38.6989 9.8598ZM11.9058 44.8727C7.22141 38.2371 5.84215 32.224 8.12488 28.3748C10.5038 24.361 16.0132 23.5183 20.2143 23.5183C22.2895 23.5183 24.5368 23.7511 26.8828 24.1509C25.5314 28.3317 24.5267 33.0718 23.9193 38.2017C20.1055 41.1272 16.6991 44.2299 13.8343 47.4111C13.1484 46.5658 12.5031 45.7155 11.9058 44.8727ZM20.2143 75.1709C17.7088 75.1709 14.7453 74.8545 12.2525 73.7562C12.7966 72.8451 13.1307 71.7873 13.1307 70.6459C13.1307 67.3255 10.4785 64.6353 7.17838 64.5442C7.57571 61.3859 9.15237 57.7188 11.9058 53.8189C12.5031 52.9737 13.151 52.1284 13.8343 51.2831C16.6991 54.4617 20.1055 57.5619 23.9193 60.4925C24.5267 65.6173 25.5314 70.3574 26.8803 74.5458C24.5368 74.938 22.2895 75.1709 20.2143 75.1709ZM43.4997 90.4692C38.3243 90.4692 33.5944 84.9699 30.3221 76.4362C34.5434 75.4872 38.9848 74.0042 43.4997 72.0327C48.0146 74.0017 52.456 75.4847 56.6773 76.4362C53.4051 84.9699 48.6751 90.4692 43.4997 90.4692ZM66.7851 75.1709C64.7099 75.1709 62.4626 74.933 60.1191 74.5382C61.468 70.3574 62.4753 65.6223 63.0801 60.4849C66.894 57.5619 70.3003 54.4592 73.1626 51.2755C73.8485 52.1208 74.4913 52.9661 75.0911 53.8113C77.8445 57.7112 79.4212 61.3833 79.821 64.5392C76.5159 64.6278 73.8636 67.3205 73.8636 70.6408C73.8636 71.7822 74.1977 72.84 74.7443 73.7536C72.249 74.852 69.2931 75.1709 66.7851 75.1709Z" fill="#58D188"/>
<circle cx="44" cy="49" r="21" fill="white"/>
<path d="M132.397 31.8184C132.397 32.5703 132.3 33.249 132.104 33.8545C131.919 34.4502 131.67 34.9775 131.357 35.4365C131.045 35.8955 130.679 36.2861 130.259 36.6084C129.839 36.9307 129.404 37.1943 128.955 37.3994C128.506 37.6045 128.047 37.7559 127.578 37.8535C127.119 37.9512 126.685 38 126.274 38H111.582V34.1914H126.274C127.007 34.1914 127.573 33.9766 127.974 33.5469C128.384 33.1172 128.589 32.541 128.589 31.8184C128.589 31.4668 128.535 31.1445 128.428 30.8516C128.32 30.5586 128.164 30.3047 127.959 30.0898C127.764 29.875 127.52 29.709 127.227 29.5918C126.943 29.4746 126.626 29.416 126.274 29.416H117.515C116.899 29.416 116.235 29.3086 115.522 29.0938C114.81 28.8691 114.146 28.5127 113.53 28.0244C112.925 27.5361 112.417 26.8965 112.007 26.1055C111.606 25.3145 111.406 24.3477 111.406 23.2051C111.406 22.0625 111.606 21.1006 112.007 20.3193C112.417 19.5283 112.925 18.8887 113.53 18.4004C114.146 17.9023 114.81 17.5459 115.522 17.3311C116.235 17.1064 116.899 16.9941 117.515 16.9941H130.479V20.8027H117.515C116.792 20.8027 116.226 21.0225 115.815 21.4619C115.415 21.9014 115.215 22.4824 115.215 23.2051C115.215 23.9375 115.415 24.5186 115.815 24.9482C116.226 25.3682 116.792 25.5781 117.515 25.5781H126.274H126.304C126.714 25.5879 127.148 25.6465 127.607 25.7539C128.066 25.8516 128.521 26.0078 128.97 26.2227C129.429 26.4375 129.863 26.7109 130.273 27.043C130.684 27.3652 131.045 27.7559 131.357 28.2148C131.68 28.6738 131.934 29.2012 132.119 29.7969C132.305 30.3926 132.397 31.0664 132.397 31.8184ZM160.01 38H156.172V25.4902L149.419 37.3701C149.253 37.6729 149.019 37.9023 148.716 38.0586C148.423 38.2148 148.105 38.293 147.764 38.293C147.432 38.293 147.119 38.2148 146.826 38.0586C146.543 37.9023 146.318 37.6729 146.152 37.3701L139.37 25.4902V38H135.562V18.6201C135.562 18.1807 135.688 17.79 135.942 17.4482C136.206 17.1064 136.548 16.877 136.968 16.7598C137.173 16.7109 137.378 16.6963 137.583 16.7158C137.788 16.7256 137.983 16.7695 138.169 16.8477C138.364 16.916 138.54 17.0186 138.696 17.1553C138.853 17.2822 138.984 17.4385 139.092 17.624L147.764 32.6973L156.436 17.624C156.66 17.2529 156.968 16.9893 157.358 16.833C157.759 16.6768 158.174 16.6523 158.604 16.7598C159.014 16.877 159.351 17.1064 159.614 17.4482C159.878 17.79 160.01 18.1807 160.01 18.6201V38ZM185.059 38H181.25V32.8438H167.861V38H164.053V27.4971C164.053 25.9639 164.316 24.5527 164.844 23.2637C165.371 21.9746 166.104 20.8662 167.041 19.9385C167.979 19.0107 169.087 18.2881 170.366 17.7705C171.646 17.2529 173.042 16.9941 174.556 16.9941H183.14C183.403 16.9941 183.652 17.043 183.887 17.1406C184.121 17.2383 184.326 17.375 184.502 17.5508C184.678 17.7266 184.814 17.9316 184.912 18.166C185.01 18.4004 185.059 18.6494 185.059 18.9131V38ZM167.861 29.0352H181.25V20.8027H174.556C174.438 20.8027 174.189 20.8223 173.809 20.8613C173.438 20.8906 173.003 20.9736 172.505 21.1104C172.017 21.2471 171.499 21.457 170.952 21.7402C170.405 22.0234 169.902 22.4141 169.443 22.9121C168.984 23.4102 168.604 24.0352 168.301 24.7871C168.008 25.5293 167.861 26.4326 167.861 27.4971V29.0352ZM210.488 24.0547C210.488 24.9238 210.381 25.7002 210.166 26.3838C209.951 27.0674 209.658 27.6729 209.287 28.2002C208.926 28.7178 208.506 29.1621 208.027 29.5332C207.549 29.9043 207.046 30.2119 206.519 30.4561C206.001 30.6904 205.474 30.8613 204.937 30.9688C204.409 31.0762 203.911 31.1299 203.442 31.1299L211.396 38H205.508L197.568 31.1299H194.829V27.3213H203.442C203.921 27.2822 204.355 27.1846 204.746 27.0283C205.146 26.8623 205.488 26.6426 205.771 26.3691C206.064 26.0957 206.289 25.7686 206.445 25.3877C206.602 24.9971 206.68 24.5527 206.68 24.0547V21.6523C206.68 21.4375 206.65 21.2764 206.592 21.1689C206.543 21.0518 206.475 20.9688 206.387 20.9199C206.309 20.8613 206.221 20.8271 206.123 20.8174C206.035 20.8076 205.952 20.8027 205.874 20.8027H193.306V38H189.497V18.9131C189.497 18.6494 189.546 18.4004 189.644 18.166C189.741 17.9316 189.873 17.7266 190.039 17.5508C190.215 17.375 190.42 17.2383 190.654 17.1406C190.889 17.043 191.143 16.9941 191.416 16.9941H205.874C206.724 16.9941 207.441 17.1504 208.027 17.4629C208.613 17.7656 209.087 18.1514 209.448 18.6201C209.819 19.0791 210.083 19.5771 210.239 20.1143C210.405 20.6514 210.488 21.1543 210.488 21.623V24.0547ZM233.12 20.8027H224.727V38H220.918V20.8027H212.51V16.9941H233.12V20.8027ZM266.328 33.3857C266.328 33.8545 266.245 34.3574 266.079 34.8945C265.923 35.4316 265.659 35.9297 265.288 36.3887C264.927 36.8477 264.453 37.2334 263.867 37.5459C263.281 37.8486 262.563 38 261.714 38H247.256C246.982 38 246.729 37.9512 246.494 37.8535C246.26 37.7559 246.055 37.624 245.879 37.458C245.713 37.2822 245.581 37.0771 245.483 36.8428C245.386 36.6084 245.337 36.3545 245.337 36.0811V18.9131C245.337 18.6494 245.386 18.4004 245.483 18.166C245.581 17.9316 245.713 17.7266 245.879 17.5508C246.055 17.375 246.26 17.2383 246.494 17.1406C246.729 17.043 246.982 16.9941 247.256 16.9941H260C260.469 16.9941 260.972 17.0771 261.509 17.2432C262.046 17.4092 262.544 17.6777 263.003 18.0488C263.472 18.4102 263.857 18.8838 264.16 19.4697C264.473 20.0557 264.629 20.7734 264.629 21.623V22.3408C264.629 23.0146 264.517 23.7422 264.292 24.5234C264.067 25.2949 263.706 26.0273 263.208 26.7207C263.638 26.9844 264.038 27.3018 264.409 27.6729C264.79 28.0439 265.122 28.4736 265.405 28.9619C265.688 29.4502 265.913 30.002 266.079 30.6172C266.245 31.2324 266.328 31.9111 266.328 32.6533V33.3857ZM262.52 32.6533C262.52 32.1553 262.441 31.7109 262.285 31.3203C262.129 30.9199 261.909 30.5781 261.626 30.2949C261.343 30.0117 261.001 29.7969 260.601 29.6504C260.2 29.4941 259.751 29.416 259.253 29.416H250.669V25.5781H257.539C258.037 25.5781 258.486 25.5049 258.887 25.3584C259.287 25.2021 259.629 24.9824 259.912 24.6992C260.195 24.416 260.41 24.0791 260.557 23.6885C260.713 23.2881 260.791 22.8389 260.791 22.3408V21.623C260.791 21.0762 260.527 20.8027 260 20.8027H249.146V34.1914H261.714C261.782 34.1914 261.865 34.1865 261.963 34.1768C262.061 34.167 262.148 34.1377 262.227 34.0889C262.305 34.04 262.373 33.957 262.432 33.8398C262.49 33.7227 262.52 33.5615 262.52 33.3564V32.6533ZM273.491 38H269.683V16.9941H273.491V38ZM296.929 20.8027H288.535V38H284.727V20.8027H276.318V16.9941H296.929V20.8027Z" fill="white"/>
<path d="M131.196 57.8027H122.803V75H118.994V57.8027H110.586V53.9941H131.196V57.8027ZM155 61.0547C155 61.9238 154.893 62.7002 154.678 63.3838C154.463 64.0674 154.17 64.6729 153.799 65.2002C153.438 65.7178 153.018 66.1621 152.539 66.5332C152.061 66.9043 151.558 67.2119 151.03 67.4561C150.513 67.6904 149.985 67.8613 149.448 67.9688C148.921 68.0762 148.423 68.1299 147.954 68.1299L155.908 75H150.02L142.08 68.1299H139.341V64.3213H147.954C148.433 64.2822 148.867 64.1846 149.258 64.0283C149.658 63.8623 150 63.6426 150.283 63.3691C150.576 63.0957 150.801 62.7686 150.957 62.3877C151.113 61.9971 151.191 61.5527 151.191 61.0547V58.6523C151.191 58.4375 151.162 58.2764 151.104 58.1689C151.055 58.0518 150.986 57.9688 150.898 57.9199C150.82 57.8613 150.732 57.8271 150.635 57.8174C150.547 57.8076 150.464 57.8027 150.386 57.8027H137.817V75H134.009V55.9131C134.009 55.6494 134.058 55.4004 134.155 55.166C134.253 54.9316 134.385 54.7266 134.551 54.5508C134.727 54.375 134.932 54.2383 135.166 54.1406C135.4 54.043 135.654 53.9941 135.928 53.9941H150.386C151.235 53.9941 151.953 54.1504 152.539 54.4629C153.125 54.7656 153.599 55.1514 153.96 55.6201C154.331 56.0791 154.595 56.5771 154.751 57.1143C154.917 57.6514 155 58.1543 155 58.623V61.0547ZM179.434 75H175.625V69.8438H162.236V75H158.428V64.4971C158.428 62.9639 158.691 61.5527 159.219 60.2637C159.746 58.9746 160.479 57.8662 161.416 56.9385C162.354 56.0107 163.462 55.2881 164.741 54.7705C166.021 54.2529 167.417 53.9941 168.931 53.9941H177.515C177.778 53.9941 178.027 54.043 178.262 54.1406C178.496 54.2383 178.701 54.375 178.877 54.5508C179.053 54.7266 179.189 54.9316 179.287 55.166C179.385 55.4004 179.434 55.6494 179.434 55.9131V75ZM162.236 66.0352H175.625V57.8027H168.931C168.813 57.8027 168.564 57.8223 168.184 57.8613C167.812 57.8906 167.378 57.9736 166.88 58.1104C166.392 58.2471 165.874 58.457 165.327 58.7402C164.78 59.0234 164.277 59.4141 163.818 59.9121C163.359 60.4102 162.979 61.0352 162.676 61.7871C162.383 62.5293 162.236 63.4326 162.236 64.4971V66.0352ZM204.834 66.2109C204.834 67.4902 204.609 68.667 204.16 69.7412C203.721 70.8154 203.11 71.7432 202.329 72.5244C201.548 73.2959 200.62 73.9014 199.546 74.3408C198.472 74.7803 197.305 75 196.045 75H185.762C185.488 75 185.234 74.9512 185 74.8535C184.766 74.7559 184.561 74.624 184.385 74.458C184.219 74.2822 184.087 74.0771 183.989 73.8428C183.892 73.6084 183.843 73.3545 183.843 73.0811V55.9131C183.843 55.6494 183.892 55.4004 183.989 55.166C184.087 54.9316 184.219 54.7266 184.385 54.5508C184.561 54.375 184.766 54.2383 185 54.1406C185.234 54.043 185.488 53.9941 185.762 53.9941H196.045C197.305 53.9941 198.472 54.2139 199.546 54.6533C200.62 55.0928 201.548 55.7031 202.329 56.4844C203.11 57.2559 203.721 58.1836 204.16 59.2676C204.609 60.3418 204.834 61.5137 204.834 62.7832V66.2109ZM201.025 62.7832C201.025 62.041 200.903 61.3623 200.659 60.7471C200.425 60.1318 200.088 59.6094 199.648 59.1797C199.209 58.7402 198.682 58.4033 198.066 58.1689C197.461 57.9248 196.787 57.8027 196.045 57.8027H187.651V71.1914H196.045C196.787 71.1914 197.461 71.0742 198.066 70.8398C198.682 70.5957 199.209 70.2588 199.648 69.8291C200.088 69.3896 200.425 68.8672 200.659 68.2617C200.903 67.6465 201.025 66.9629 201.025 66.2109V62.7832ZM225.84 66.416H213.813V62.5781H225.84V66.416ZM227.554 75H213.813C213.286 75 212.71 74.9072 212.085 74.7217C211.46 74.5361 210.879 74.2334 210.342 73.8135C209.814 73.3838 209.37 72.832 209.009 72.1582C208.657 71.4746 208.481 70.6396 208.481 69.6533V55.9131C208.481 55.6494 208.53 55.4004 208.628 55.166C208.726 54.9316 208.857 54.7266 209.023 54.5508C209.199 54.375 209.404 54.2383 209.639 54.1406C209.873 54.043 210.127 53.9941 210.4 53.9941H227.554V57.8027H212.29V69.6533C212.29 70.1514 212.422 70.5322 212.686 70.7959C212.949 71.0596 213.335 71.1914 213.843 71.1914H227.554V75Z" fill="white"/>
<path d="M54.3975 52.8184C54.3975 53.5703 54.2998 54.249 54.1045 54.8545C53.9189 55.4502 53.6699 55.9775 53.3574 56.4365C53.0449 56.8955 52.6787 57.2861 52.2588 57.6084C51.8389 57.9307 51.4043 58.1943 50.9551 58.3994C50.5059 58.6045 50.0469 58.7559 49.5781 58.8535C49.1191 58.9512 48.6846 59 48.2744 59H33.582V55.1914H48.2744C49.0068 55.1914 49.5732 54.9766 49.9736 54.5469C50.3838 54.1172 50.5889 53.541 50.5889 52.8184C50.5889 52.4668 50.5352 52.1445 50.4277 51.8516C50.3203 51.5586 50.1641 51.3047 49.959 51.0898C49.7637 50.875 49.5195 50.709 49.2266 50.5918C48.9434 50.4746 48.626 50.416 48.2744 50.416H39.5146C38.8994 50.416 38.2354 50.3086 37.5225 50.0938C36.8096 49.8691 36.1455 49.5127 35.5303 49.0244C34.9248 48.5361 34.417 47.8965 34.0068 47.1055C33.6064 46.3145 33.4062 45.3477 33.4062 44.2051C33.4062 43.0625 33.6064 42.1006 34.0068 41.3193C34.417 40.5283 34.9248 39.8887 35.5303 39.4004C36.1455 38.9023 36.8096 38.5459 37.5225 38.3311C38.2354 38.1064 38.8994 37.9941 39.5146 37.9941H52.4785V41.8027H39.5146C38.792 41.8027 38.2256 42.0225 37.8154 42.4619C37.415 42.9014 37.2148 43.4824 37.2148 44.2051C37.2148 44.9375 37.415 45.5186 37.8154 45.9482C38.2256 46.3682 38.792 46.5781 39.5146 46.5781H48.2744H48.3037C48.7139 46.5879 49.1484 46.6465 49.6074 46.7539C50.0664 46.8516 50.5205 47.0078 50.9697 47.2227C51.4287 47.4375 51.8633 47.7109 52.2734 48.043C52.6836 48.3652 53.0449 48.7559 53.3574 49.2148C53.6797 49.6738 53.9336 50.2012 54.1191 50.7969C54.3047 51.3926 54.3975 52.0664 54.3975 52.8184Z" fill="#1C1D2E"/>
</g>
<defs>
<clipPath id="clip0_2169_92">
<rect width="297" height="93" fill="white"/>
</clipPath>
</defs>
</svg>
