<svg width="49" height="60" viewBox="0 0 49 60" fill="none" xmlns="http://www.w3.org/2000/svg">
<path d="M46.9978 26.557V44.8579C47.0297 45.5206 46.7174 46.1979 46.0634 46.5708L27.2711 57.2795C25.5902 58.2377 23.5361 58.2403 21.8528 57.2865L2.94106 46.5729C2.27105 46.1934 1.95802 45.4948 2.00482 44.818V26.6061C1.95739 25.9387 2.25962 25.2488 2.91418 24.8634L21.7724 13.7595C23.4966 12.7443 25.6289 12.747 27.3505 13.7667L46.0897 24.8659C46.7253 25.2424 47.0273 25.9066 46.9978 26.557Z" stroke="#366AEF" stroke-width="3"/>
<path d="M7.71082 12.2441C6.77208 11.7663 6.76087 10.544 7.69071 10.0521L21.9392 2.51549C23.2421 1.82641 24.853 1.82829 26.1539 2.52042L40.3124 10.0538C41.2382 10.5464 41.2268 11.764 40.2922 12.2425L26.0936 19.511C24.8235 20.1613 23.2715 20.1631 21.9997 19.5157L7.71082 12.2441Z" stroke="#57D188" stroke-width="3"/>
</svg>
